<?xml version="1.0" encoding="utf-8"?>
<!-- Generator: Adobe Illustrator 21.1.0, SVG Export Plug-In . SVG Version: 6.00 Build 0)  -->
<svg version="1.1" id="Слой_1" xmlns="http://www.w3.org/2000/svg" xmlns:xlink="http://www.w3.org/1999/xlink" x="0px" y="0px"
	 viewBox="0 0 231 231" style="enable-background:new 0 0 231 231;" xml:space="preserve">
<style type="text/css">
	.st0{fill:#002270;}
</style>
<g>
	<path class="st0" d="M142.5,97.1c-1.1,0-1.9,0.4-2.5,1.3c-0.6,0.9-0.8,2-0.8,3.3v0.3c0,1.3,0.3,2.4,0.8,3.3
		c0.6,0.9,1.4,1.3,2.5,1.3c1.1,0,1.9-0.4,2.5-1.3s0.9-2,0.9-3.3v-0.3c0-1.3-0.3-2.4-0.9-3.3C144.5,97.5,143.6,97.1,142.5,97.1z"/>
	<path class="st0" d="M83.7,97.6c-0.5-0.3-1-0.5-1.7-0.5c-1.1,0-1.9,0.5-2.5,1.4c-0.5,0.9-0.8,2.1-0.8,3.6v0.2
		c0,1.3,0.3,2.3,0.8,3.1c0.5,0.8,1.3,1.2,2.4,1.2c0.7,0,1.3-0.2,1.7-0.5c0.5-0.3,0.9-0.7,1.1-1.3v-5.9
		C84.5,98.3,84.1,97.9,83.7,97.6z"/>
	<polygon class="st0" points="67.5,94.1 64.7,101.8 70.4,101.8 67.6,94.1 	"/>
	<path class="st0" d="M117.8,105.4c0.6-0.8,0.8-1.8,0.8-3.1v-0.2c0-1.4-0.3-2.6-0.8-3.5c-0.6-0.9-1.4-1.4-2.5-1.4
		c-0.7,0-1.2,0.2-1.7,0.5c-0.5,0.3-0.8,0.7-1.1,1.2v6.1c0.3,0.5,0.7,0.9,1.1,1.2c0.5,0.3,1,0.4,1.7,0.4
		C116.4,106.6,117.2,106.2,117.8,105.4z"/>
	<path class="st0" d="M130.7,125.9c-0.8,0-1.4,0.3-2,1c-0.5,0.6-0.9,1.5-1,2.4l0,0.1h5.8V129c0-0.9-0.2-1.7-0.7-2.3
		C132.3,126.2,131.6,125.9,130.7,125.9z"/>
	<path class="st0" d="M90.2,131.8c-0.6,0.5-0.8,1-0.8,1.6c0,0.6,0.2,1,0.5,1.3c0.4,0.3,0.9,0.5,1.6,0.5c0.8,0,1.6-0.2,2.3-0.6
		c0.7-0.4,1.1-0.9,1.3-1.5v-2.1h-2.6C91.5,131.1,90.8,131.3,90.2,131.8z"/>
	<path class="st0" d="M115.5,0C51.7,0,0,51.7,0,115.5S51.7,231,115.5,231S231,179.3,231,115.5S179.3,0,115.5,0z M72.7,108.2
		l-1.6-4.4H64l-1.6,4.4H60l6.6-17h2l6.5,17H72.7z M85,106.6c-0.4,0.6-0.9,1-1.5,1.3c-0.6,0.3-1.3,0.5-2.1,0.5
		c-1.5,0-2.8-0.6-3.6-1.7c-0.9-1.1-1.3-2.6-1.3-4.4v-0.2c0-2,0.4-3.7,1.3-4.9c0.9-1.2,2.1-1.9,3.7-1.9c0.7,0,1.4,0.1,2,0.4
		c0.6,0.3,1.1,0.7,1.5,1.2v-7h2.3v18.3h-1.9L85,106.6z M95.3,137c-0.1-0.4-0.1-0.7-0.2-1c0-0.3-0.1-0.6-0.1-0.9
		c-0.4,0.6-1,1.1-1.7,1.5c-0.7,0.4-1.4,0.6-2.2,0.6c-1.3,0-2.3-0.3-3-1s-1-1.6-1-2.8c0-1.2,0.5-2.2,1.5-2.8c1-0.7,2.3-1,4-1h2.5
		v-1.3c0-0.7-0.2-1.3-0.7-1.8c-0.5-0.4-1.1-0.6-1.9-0.6c-0.7,0-1.3,0.2-1.8,0.6c-0.5,0.4-0.7,0.8-0.7,1.4h-2.2l0-0.1
		c0-0.9,0.4-1.8,1.3-2.5c0.9-0.8,2.1-1.1,3.6-1.1c1.4,0,2.6,0.4,3.5,1.1c0.9,0.7,1.3,1.8,1.3,3.2v6.1c0,0.5,0,0.9,0.1,1.3
		c0,0.4,0.1,0.8,0.3,1.2H95.3z M98.6,106.6c-0.4,0.6-0.9,1-1.5,1.3c-0.6,0.3-1.3,0.5-2.1,0.5c-1.5,0-2.8-0.6-3.6-1.7
		c-0.9-1.1-1.3-2.6-1.3-4.4v-0.2c0-2,0.4-3.7,1.3-4.9c0.9-1.2,2.1-1.9,3.7-1.9c0.7,0,1.4,0.1,2,0.4c0.6,0.3,1.1,0.7,1.5,1.2v-7h2.3
		v18.3h-1.9L98.6,106.6z M109,136.2c-0.9,0.7-2.1,1-3.6,1c-1.6,0-2.9-0.4-3.8-1.2c-0.9-0.8-1.4-1.8-1.3-2.9l0-0.1h2.2
		c0,0.8,0.3,1.4,0.9,1.8c0.6,0.4,1.2,0.6,2,0.6c0.8,0,1.5-0.2,1.9-0.5c0.5-0.3,0.7-0.8,0.7-1.3c0-0.5-0.2-0.9-0.6-1.3
		c-0.4-0.3-1.1-0.6-2.2-0.9c-1.5-0.3-2.7-0.8-3.5-1.4c-0.8-0.6-1.2-1.4-1.2-2.3c0-1,0.4-1.9,1.3-2.6s2-1.1,3.4-1.1
		c1.5,0,2.6,0.4,3.5,1.1c0.9,0.8,1.3,1.7,1.2,2.8l0,0.1h-2.2c0-0.6-0.2-1.1-0.7-1.5c-0.5-0.4-1.1-0.7-1.8-0.7
		c-0.8,0-1.4,0.2-1.8,0.5c-0.4,0.4-0.6,0.8-0.6,1.3c0,0.5,0.2,0.9,0.5,1.2s1.1,0.5,2.1,0.8c1.6,0.3,2.8,0.8,3.6,1.4
		c0.8,0.6,1.2,1.4,1.2,2.4C110.4,134.6,109.9,135.5,109,136.2z M112.5,113h-2.3V95.5h1.8l0.4,1.6c0.4-0.6,0.9-1.1,1.5-1.4
		c0.6-0.3,1.3-0.5,2.2-0.5c1.6,0,2.8,0.6,3.7,1.9c0.9,1.2,1.3,2.9,1.3,4.9v0.2c0,1.8-0.4,3.3-1.3,4.4c-0.9,1.1-2.1,1.7-3.6,1.7
		c-0.8,0-1.5-0.1-2.1-0.4c-0.6-0.3-1.1-0.7-1.5-1.2V113z M121.5,136.2c-0.9,0.7-2.1,1-3.6,1c-1.6,0-2.9-0.4-3.8-1.2
		c-0.9-0.8-1.4-1.8-1.3-2.9l0-0.1h2.2c0,0.8,0.3,1.4,0.9,1.8c0.6,0.4,1.2,0.6,2,0.6c0.8,0,1.5-0.2,1.9-0.5c0.5-0.3,0.7-0.8,0.7-1.3
		c0-0.5-0.2-0.9-0.6-1.3c-0.4-0.3-1.1-0.6-2.2-0.9c-1.5-0.3-2.7-0.8-3.5-1.4c-0.8-0.6-1.2-1.4-1.2-2.3c0-1,0.4-1.9,1.3-2.6
		s2-1.1,3.4-1.1c1.5,0,2.6,0.4,3.5,1.1c0.9,0.8,1.3,1.7,1.2,2.8l0,0.1h-2.2c0-0.6-0.2-1.1-0.7-1.5c-0.5-0.4-1.1-0.7-1.8-0.7
		c-0.8,0-1.4,0.2-1.8,0.5c-0.4,0.4-0.6,0.8-0.6,1.3c0,0.5,0.2,0.9,0.5,1.2c0.4,0.3,1.1,0.5,2.1,0.8c1.6,0.3,2.8,0.8,3.6,1.4
		c0.8,0.6,1.2,1.4,1.2,2.4C122.9,134.6,122.5,135.5,121.5,136.2z M123.8,89.9h2.3v7.3c0.4-0.6,1-1.1,1.6-1.4
		c0.6-0.3,1.3-0.5,2.1-0.5c1.3,0,2.4,0.4,3.2,1.2c0.8,0.8,1.1,2.1,1.1,3.7v7.9h-2.3v-8c0-1-0.2-1.8-0.7-2.3c-0.4-0.5-1.1-0.7-2-0.7
		c-0.6,0-1.2,0.2-1.7,0.5c-0.5,0.3-0.9,0.7-1.3,1.2v9.3h-2.3V89.9z M135.9,131.2h-8.2l0,0.1c0,1.2,0.3,2.2,0.9,3
		c0.6,0.8,1.4,1.2,2.5,1.2c0.8,0,1.5-0.1,2.1-0.3c0.6-0.2,1.1-0.5,1.5-0.9l0.9,1.5c-0.5,0.4-1,0.8-1.8,1.1c-0.7,0.3-1.6,0.4-2.7,0.4
		c-1.8,0-3.2-0.6-4.2-1.8c-1-1.2-1.6-2.7-1.6-4.6v-0.5c0-1.8,0.5-3.3,1.6-4.5c1.1-1.2,2.3-1.8,3.8-1.8c1.7,0,3,0.5,3.9,1.5
		c0.9,1,1.3,2.4,1.3,4.1V131.2z M143.3,137.1c-0.3,0.1-0.7,0.1-1,0.1c-0.9,0-1.7-0.3-2.2-0.8c-0.6-0.6-0.8-1.5-0.8-2.7V126h-2v-1.7
		h2v-3.1h2.3v3.1h2.4v1.7h-2.4v7.7c0,0.6,0.1,1,0.4,1.3c0.2,0.2,0.6,0.4,1,0.4c0.1,0,0.3,0,0.4,0c0.2,0,0.3-0.1,0.4-0.1l0.3,1.6
		C143.8,136.9,143.6,137,143.3,137.1z M148.2,102c0,1.9-0.5,3.4-1.5,4.6c-1,1.2-2.4,1.8-4.1,1.8c-1.7,0-3.1-0.6-4.1-1.8
		c-1-1.2-1.5-2.7-1.5-4.6v-0.3c0-1.9,0.5-3.4,1.5-4.6c1-1.2,2.4-1.8,4.1-1.8c1.8,0,3.1,0.6,4.2,1.8c1,1.2,1.5,2.8,1.5,4.6V102z
		 M155.8,108.3c-0.3,0.1-0.7,0.1-1,0.1c-0.9,0-1.7-0.3-2.2-0.8s-0.8-1.5-0.8-2.7v-7.7h-2v-1.7h2v-3.1h2.3v3.1h2.4v1.7h-2.4v7.7
		c0,0.6,0.1,1,0.4,1.3c0.2,0.2,0.6,0.4,1,0.4c0.1,0,0.3,0,0.4,0s0.3-0.1,0.4-0.1l0.3,1.6C156.4,108.1,156.1,108.2,155.8,108.3z
		 M170.1,102c0,1.9-0.5,3.4-1.5,4.6c-1,1.2-2.4,1.8-4.1,1.8c-1.7,0-3.1-0.6-4.1-1.8c-1-1.2-1.5-2.7-1.5-4.6v-0.3
		c0-1.9,0.5-3.4,1.5-4.6c1-1.2,2.4-1.8,4.1-1.8c1.8,0,3.1,0.6,4.2,1.8c1,1.2,1.5,2.8,1.5,4.6V102z"/>
	<path class="st0" d="M164.4,97.1c-1.1,0-1.9,0.4-2.5,1.3c-0.6,0.9-0.8,2-0.8,3.3v0.3c0,1.3,0.3,2.4,0.8,3.3
		c0.6,0.9,1.4,1.3,2.5,1.3c1.1,0,1.9-0.4,2.5-1.3s0.9-2,0.9-3.3v-0.3c0-1.3-0.3-2.4-0.9-3.3C166.4,97.5,165.5,97.1,164.4,97.1z"/>
	<path class="st0" d="M97.3,97.6c-0.5-0.3-1-0.5-1.7-0.5c-1.1,0-1.9,0.5-2.5,1.4c-0.5,0.9-0.8,2.1-0.8,3.6v0.2
		c0,1.3,0.3,2.3,0.8,3.1c0.5,0.8,1.3,1.2,2.4,1.2c0.7,0,1.3-0.2,1.7-0.5c0.5-0.3,0.9-0.7,1.1-1.3v-5.9
		C98.1,98.3,97.8,97.9,97.3,97.6z"/>
</g>
</svg>
